LowLeg_Impact_6ms_states
version=1
nRows=4
nColumns=103
inDegrees=yes

# SIMM Motion File Header:
name LowLeg_Impact_6ms_states
datacolumns 103
datarows 4
otherdata 1
range 0.01642972 0.01757108
endheader
time	Pin_1	hip_flexion_r	hip_adduction_r	hip_rotation_r	knee_angle_r	ankle_angle_r	subtalar_angle_r	mtp_angle_r	Pin_1_u	hip_flexion_r_u	hip_adduction_r_u	hip_rotation_r_u	knee_angle_r_u	ankle_angle_r_u	subtalar_angle_r_u	mtp_angle_r_u	glut_med1_r.activation	glut_med1_r.fiber_length	glut_med2_r.activation	glut_med2_r.fiber_length	glut_med3_r.activation	glut_med3_r.fiber_length	glut_min1_r.activation	glut_min1_r.fiber_length	glut_min2_r.activation	glut_min2_r.fiber_length	glut_min3_r.activation	glut_min3_r.fiber_length	semimem_r.activation	semimem_r.fiber_length	semiten_r.activation	semiten_r.fiber_length	bifemlh_r.activation	bifemlh_r.fiber_length	bifemsh_r.activation	bifemsh_r.fiber_length	sar_r.activation	sar_r.fiber_length	add_long_r.activation	add_long_r.fiber_length	add_brev_r.activation	add_brev_r.fiber_length	add_mag1_r.activation	add_mag1_r.fiber_length	add_mag2_r.activation	add_mag2_r.fiber_length	add_mag3_r.activation	add_mag3_r.fiber_length	tfl_r.activation	tfl_r.fiber_length	pect_r.activation	pect_r.fiber_length	grac_r.activation	grac_r.fiber_length	glut_max1_r.activation	glut_max1_r.fiber_length	glut_max2_r.activation	glut_max2_r.fiber_length	glut_max3_r.activation	glut_max3_r.fiber_length	iliacus_r.activation	iliacus_r.fiber_length	psoas_r.activation	psoas_r.fiber_length	quad_fem_r.activation	quad_fem_r.fiber_length	gem_r.activation	gem_r.fiber_length	peri_r.activation	peri_r.fiber_length	rect_fem_r.activation	rect_fem_r.fiber_length	vas_med_r.activation	vas_med_r.fiber_length	vas_int_r.activation	vas_int_r.fiber_length	vas_lat_r.activation	vas_lat_r.fiber_length	med_gas_r.activation	med_gas_r.fiber_length	lat_gas_r.activation	lat_gas_r.fiber_length	soleus_r.activation	soleus_r.fiber_length	tib_post_r.activation	tib_post_r.fiber_length	flex_dig_r.activation	flex_dig_r.fiber_length	flex_hal_r.activation	flex_hal_r.fiber_length	tib_ant_r.activation	tib_ant_r.fiber_length	per_brev_r.activation	per_brev_r.fiber_length	per_long_r.activation	per_long_r.fiber_length	per_tert_r.activation	per_tert_r.fiber_length	ext_dig_r.activation	ext_dig_r.fiber_length	ext_hal_r.activation	ext_hal_r.fiber_length
      0.01642972	     -5.53030225	     60.00000000	     -0.00000000	     -0.00000000	    -90.00000000	      9.33095260	     -1.64043250	     -8.70109054	   -172.71499548	     -0.00000000	     -0.00000000	     -0.00000000	      0.00000000	    719.41079412	   -102.74297421	   -656.78889358	      0.04167024	      0.05841119	      0.04167024	      0.09495176	      0.04167024	      0.08225217	      0.04167024	      0.07394890	      0.04167024	      0.06113369	      0.04167024	      0.04190623	      0.04167024	      0.08517301	      0.04167024	      0.20693013	      0.04167024	      0.10936731	      0.04167024	      0.12847584	      0.04167024	      0.37803299	      0.04167024	      0.09355535	      0.04167024	      0.11735528	      0.04167024	      0.09020120	      0.04167024	      0.11199747	      0.04167024	      0.14928833	      0.04167024	      0.09439013	      0.04167024	      0.09532996	      0.04167024	      0.28816100	      0.04167024	      0.11207669	      0.04167024	      0.12869119	      0.04167024	      0.15978328	      0.04167024	      0.09532996	      0.04167024	      0.09532996	      0.04167024	      0.06367974	      0.04167024	      0.02876887	      0.04167024	      0.03112196	      0.04167024	      0.11165815	      0.04167024	      0.10641459	      0.04167024	      0.10669195	      0.04167024	      0.10262988	      0.04167024	      0.06547088	      0.04167024	      0.06975880	      0.04167024	      0.05459334	      0.04167024	      0.03535342	      0.04167024	      0.03712423	      0.04167024	      0.04695121	      0.04167024	      0.09521913	      0.04167024	      0.05459334	      0.04167024	      0.05350187	      0.04167024	      0.08435046	      0.04167024	      0.09523656	      0.04167024	      0.10023914
      0.01688224	     -5.60805571	     60.00000000	     -0.00000000	     -0.00000000	    -90.00000000	      9.65584836	     -1.68666119	     -8.99759060	   -170.94180114	     -0.00000000	     -0.00000000	     -0.00000000	      0.00000000	    716.52117869	   -101.58160734	   -653.64812940	      0.04146939	      0.05823230	      0.04146939	      0.09495192	      0.04146939	      0.08225250	      0.04146939	      0.07373043	      0.04146939	      0.06094664	      0.04146939	      0.04188841	      0.04146939	      0.08496630	      0.04146939	      0.20693820	      0.04146939	      0.10937812	      0.04146939	      0.12847772	      0.04146939	      0.37803525	      0.04146939	      0.09337975	      0.04146939	      0.11735574	      0.04146939	      0.09003228	      0.04146939	      0.11200142	      0.04146939	      0.14929420	      0.04146939	      0.09426925	      0.04146939	      0.09520272	      0.04146939	      0.28816423	      0.04146939	      0.11208061	      0.04146939	      0.12869528	      0.04146939	      0.15978677	      0.04146939	      0.09520272	      0.04146939	      0.09520272	      0.04146939	      0.06367987	      0.04146939	      0.02876813	      0.04146939	      0.03111798	      0.04146939	      0.11166872	      0.04146939	      0.10641677	      0.04146939	      0.10669396	      0.04146939	      0.10263235	      0.04146939	      0.06527139	      0.04146939	      0.06954835	      0.04146939	      0.05442604	      0.04146939	      0.03534938	      0.04146939	      0.03701044	      0.04146939	      0.04680730	      0.04146939	      0.09509443	      0.04146939	      0.05442604	      0.04146939	      0.05333791	      0.04146939	      0.08414013	      0.04146939	      0.09510677	      0.04146939	      0.10009790
      0.01719228	     -5.66087261	     60.00000000	     -0.00000000	     -0.00000000	    -90.00000000	      9.87769795	     -1.71803766	     -9.19992218	   -169.77624204	      0.00000000	     -0.00000000	     -0.00000000	      0.00000000	    714.58961525	   -100.82545925	   -651.55748496	      0.04133259	      0.05811265	      0.04133259	      0.09495207	      0.04133259	      0.08225273	      0.04133259	      0.07358420	      0.04133259	      0.06082155	      0.04133259	      0.04187803	      0.04133259	      0.08482748	      0.04133259	      0.20694365	      0.04133259	      0.10938545	      0.04133259	      0.12847900	      0.04133259	      0.37803679	      0.04133259	      0.09325951	      0.04133259	      0.11735606	      0.04133259	      0.08991847	      0.04133259	      0.11200409	      0.04133259	      0.14929816	      0.04133259	      0.09418647	      0.04133259	      0.09511558	      0.04133259	      0.28816643	      0.04133259	      0.11208325	      0.04133259	      0.12869803	      0.04133259	      0.15978913	      0.04133259	      0.09511558	      0.04133259	      0.09511558	      0.04133259	      0.06367997	      0.04133259	      0.02876768	      0.04133259	      0.03111540	      0.04133259	      0.11167588	      0.04133259	      0.10641824	      0.04133259	      0.10669531	      0.04133259	      0.10263401	      0.04133259	      0.06513796	      0.04133259	      0.06940756	      0.04133259	      0.05431415	      0.04133259	      0.03534726	      0.04133259	      0.03693434	      0.04133259	      0.04671106	      0.04133259	      0.09500904	      0.04133259	      0.05431415	      0.04133259	      0.05322825	      0.04133259	      0.08399893	      0.04133259	      0.09501790	      0.04133259	      0.10000118
      0.01757108	     -5.72492262	     60.00000000	     -0.00000000	     -0.00000000	    -90.00000000	     10.14793849	     -1.75606035	     -9.44625195	   -168.41293899	      0.00000000	     -0.00000000	     -0.00000000	      0.00000000	    712.26245153	    -99.94101388	   -649.05254268	      0.04116631	      0.05796957	      0.04116631	      0.09495227	      0.04116631	      0.08225301	      0.04116631	      0.07340923	      0.04116631	      0.06067195	      0.04116631	      0.04186687	      0.04116631	      0.08466087	      0.04116631	      0.20695023	      0.04116631	      0.10939432	      0.04116631	      0.12848053	      0.04116631	      0.37803867	      0.04116631	      0.09311265	      0.04116631	      0.11735644	      0.04116631	      0.08978151	      0.04116631	      0.11200732	      0.04116631	      0.14930293	      0.04116631	      0.09408538	      0.04116631	      0.09500917	      0.04116631	      0.28816908	      0.04116631	      0.11208645	      0.04116631	      0.12870136	      0.04116631	      0.15979197	      0.04116631	      0.09500917	      0.04116631	      0.09500917	      0.04116631	      0.06368010	      0.04116631	      0.02876718	      0.04116631	      0.03111240	      0.04116631	      0.11168454	      0.04116631	      0.10642001	      0.04116631	      0.10669694	      0.04116631	      0.10263601	      0.04116631	      0.06497837	      0.04116631	      0.06923915	      0.04116631	      0.05418035	      0.04116631	      0.03534530	      0.04116631	      0.03684334	      0.04116631	      0.04659597	      0.04116631	      0.09490475	      0.04116631	      0.05418035	      0.04116631	      0.05309712	      0.04116631	      0.08382953	      0.04116631	      0.09490935	      0.04116631	      0.09988306
